<svg width="60" height="60" viewBox="0 0 60 60" fill="none" xmlns="http://www.w3.org/2000/svg">
<path d="M11.0662 51.0019L6.85498 3.75H53.145L48.9281 50.9944L29.9719 56.25L11.0662 51.0019Z" fill="#1572B6"/>
<path d="M30 52.2338L45.3187 47.9869L48.9225 7.61438H30V52.2338Z" fill="#33A9DC"/>
<path d="M30 24.7331H37.6688L38.1975 18.7987H30V13.0031H44.5312L44.3925 14.5575L42.9694 30.5287H30V24.7331V24.7331Z" fill="white"/>
<path d="M30.0356 39.7837L30.0093 39.7912L23.5556 38.0475L23.1431 33.4256H17.325L18.1368 42.525L30.0075 45.8212L30.0356 45.8137V39.7837V39.7837Z" fill="#EBEBEB"/>
<path d="M37.1756 30.2831L36.4781 38.0438L30.015 39.7875V45.8175L41.895 42.525L41.9831 41.5463L42.99 30.2831H37.1756V30.2831Z" fill="white"/>
<path d="M30.0206 13.0031V18.7987H16.0218L15.9056 17.4956L15.6412 14.5575L15.5024 13.0031H30.0206V13.0031ZM29.9999 24.7331V30.5287H23.6268L23.5106 29.2256L23.2481 26.2875L23.1093 24.7331H29.9999V24.7331Z" fill="#EBEBEB"/>
</svg>
