<svg width="35" height="46" viewBox="0 0 35 46" fill="none" xmlns="http://www.w3.org/2000/svg">
<g clip-path="url(#clip0_291_81)">
<path d="M8.75 46C13.58 46 17.5 42.5654 17.5 38.3334V30.6667H8.75C3.92 30.6667 0 34.1014 0 38.3334C0 42.5654 3.92 46 8.75 46Z" fill="#0ACF83"/>
<path d="M0 23C0 18.768 3.92 15.3333 8.75 15.3333H17.5V30.6666H8.75C3.92 30.6666 0 27.232 0 23Z" fill="#A259FF"/>
<path d="M0 7.66667C0 3.43467 3.92 0 8.75 0H17.5V15.3333H8.75C3.92 15.3333 0 11.8987 0 7.66667Z" fill="#F24E1E"/>
<path d="M17.5 0H26.25C31.08 0 35 3.43467 35 7.66667C35 11.8987 31.08 15.3333 26.25 15.3333H17.5V0Z" fill="#FF7262"/>
<path d="M35 23C35 27.232 31.08 30.6666 26.25 30.6666C21.42 30.6666 17.5 27.232 17.5 23C17.5 18.768 21.42 15.3333 26.25 15.3333C31.08 15.3333 35 18.768 35 23Z" fill="#1ABCFE"/>
</g>
<defs>
<clipPath id="clip0_291_81">
<rect width="35" height="46" fill="white"/>
</clipPath>
</defs>
</svg>
