<svg width="60" height="60" viewBox="0 0 60 60" fill="none" xmlns="http://www.w3.org/2000/svg">
<path d="M6.50005 26.475L20.9501 12L25.1751 16.25C24.5751 18.375 25.5501 20.7 27.5001 21.825V35.675C26.0001 36.525 25.0001 38.15 25.0001 40C25.0001 41.3261 25.5268 42.5978 26.4645 43.5355C27.4022 44.4732 28.674 45 30.0001 45C31.3261 45 32.5979 44.4732 33.5356 43.5355C34.4733 42.5978 35.0001 41.3261 35.0001 40C35.0001 38.15 34.0001 36.525 32.5001 35.675V23.525L37.6751 28.75C37.5001 29.125 37.5001 29.55 37.5001 30C37.5001 31.3261 38.0268 32.5978 38.9645 33.5355C39.9022 34.4732 41.174 35 42.5001 35C43.8261 35 45.0979 34.4732 46.0356 33.5355C46.9733 32.5978 47.5001 31.3261 47.5001 30C47.5001 28.6739 46.9733 27.4021 46.0356 26.4645C45.0979 25.5268 43.8261 25 42.5001 25C42.0501 25 41.6251 25 41.2501 25.175L34.8251 18.75C35.1355 17.5921 35.0151 16.3609 34.4864 15.285C33.9576 14.2091 33.0564 13.3616 31.9501 12.9C30.8751 12.5 29.7501 12.4 28.7501 12.675L24.5001 8.44999L26.4751 6.49999C28.4251 4.52499 31.5751 4.52499 33.5251 6.49999L53.5001 26.475C55.4751 28.425 55.4751 31.575 53.5001 33.525L33.5251 53.5C31.5751 55.475 28.4251 55.475 26.4751 53.5L6.50005 33.525C4.52505 31.575 4.52505 28.425 6.50005 26.475Z" fill="white"/>
</svg>
