<svg width="60" height="60" viewBox="0 0 60 60" fill="none" xmlns="http://www.w3.org/2000/svg">
<path d="M11.0663 51.0019L6.85315 3.75H53.1469L48.9281 50.9944L29.9719 56.25L11.0663 51.0019Z" fill="#E44F26"/>
<path d="M30 52.2338L45.3188 47.9869L48.9225 7.61438H30V52.2338Z" fill="#F1662A"/>
<path d="M30 25.1381H22.3312L21.8025 19.2038H30V13.4081H15.4688L15.6075 14.9644L17.0306 30.9338H30V25.1381V25.1381ZM30 40.1888L29.9738 40.1963L23.52 38.4544L23.1075 33.8325H17.2894L18.1013 42.93L29.9738 46.2263L30 46.2188V40.1888Z" fill="#EBEBEB"/>
<path d="M29.9794 25.1381V30.9338H37.1156L36.4444 38.4506L29.9794 40.1944V46.2244L41.8612 42.93L41.9475 41.9513L43.3087 26.6944L43.4512 25.1381H29.9794V25.1381ZM29.9794 13.4081V19.2038H43.9781L44.0944 17.9025L44.3587 14.9644L44.4975 13.4081H29.9794V13.4081Z" fill="white"/>
</svg>
