<svg width="50" height="68" viewBox="0 0 50 68" fill="none" xmlns="http://www.w3.org/2000/svg">
<g clip-path="url(#clip0_125_236)">
<path d="M16.1238 52.567C16.1238 52.567 13.5461 54.0753 17.9584 54.5857C23.3039 55.1993 26.0357 55.1115 31.9265 53.9895C31.9265 53.9895 33.4754 54.9666 35.6381 55.8131C22.4328 61.508 5.75153 55.4831 16.1238 52.567M14.5101 45.1353C14.5101 45.1353 11.6189 47.2889 16.0345 47.7484C21.7447 48.3411 26.2541 48.3897 34.0572 46.8778C34.0572 46.8778 35.1365 47.9787 36.8336 48.5809C20.8674 53.2788 3.08395 48.9514 14.5101 45.1353" fill="#5382A1"/>
<path d="M28.1136 32.5289C31.3675 36.2984 27.2587 39.6906 27.2587 39.6906C27.2587 39.6906 35.5206 35.3989 31.7263 30.0245C28.1826 25.013 25.4648 22.5225 40.1771 13.9368C40.1771 13.9368 17.0837 19.7404 28.1136 32.5287" fill="#E76F00"/>
<path d="M45.5789 58.0637C45.5789 58.0637 47.4865 59.6452 43.4779 60.8688C35.8557 63.1924 11.7529 63.8941 5.05724 60.9614C2.65041 59.908 7.16408 58.4458 8.5838 58.1388C10.0645 57.8157 10.9108 57.8761 10.9108 57.8761C8.234 55.9785 -6.39061 61.6017 3.48224 63.2119C30.4067 67.6056 52.5627 61.2336 45.5789 58.0637ZM17.3633 37.4354C17.3633 37.4354 5.10334 40.3657 13.0219 41.4295C16.3652 41.8799 23.0303 41.7781 29.2387 41.2546C34.3125 40.8242 39.4072 39.9083 39.4072 39.9083C39.4072 39.9083 37.6182 40.6793 36.3238 41.5686C23.8738 44.8635 -0.177329 43.3307 6.74669 39.9604C12.6024 37.1123 17.3635 37.4354 17.3635 37.4354M39.3567 49.8055C52.0129 43.1879 46.1611 36.8285 42.0768 37.6854C41.0756 37.8949 40.6293 38.0765 40.6293 38.0765C40.6293 38.0765 41.001 37.4908 41.7108 37.2373C49.7908 34.3787 56.0051 45.6679 39.1024 50.139C39.1024 50.1392 39.2983 49.9631 39.3567 49.8055Z" fill="#5382A1"/>
<path d="M31.7264 0.0728894C31.7264 0.0728894 38.7356 7.12838 25.0785 17.9771C14.1272 26.68 22.5813 31.642 25.0741 37.3113C18.6815 31.5078 13.9901 26.3987 17.1375 21.6438C21.7569 14.6636 34.5543 11.2795 31.7264 0.0726929" fill="#E76F00"/>
<path d="M18.607 67.7376C30.7552 68.5202 49.4101 67.3035 49.8519 61.5193C49.8519 61.5193 49.0027 63.7123 39.8121 65.4535C29.4433 67.4169 16.655 67.1877 9.07007 65.9293C9.07026 65.9293 10.6228 67.2225 18.6072 67.7376" fill="#5382A1"/>
</g>
<defs>
<clipPath id="clip0_125_236">
<rect width="50" height="68" fill="white"/>
</clipPath>
</defs>
</svg>
