<svg width="60" height="60" viewBox="0 0 60 60" fill="none" xmlns="http://www.w3.org/2000/svg">
<path d="M11.205 4.74935C10.7215 6.36507 10.469 8.04104 10.455 9.72748L13.1306 11.0231C13.0802 9.43254 13.1429 7.84041 13.3181 6.25873C13.3227 6.20098 13.3295 6.14343 13.3387 6.08623C13.3387 6.14435 13.3218 6.2006 13.3181 6.25873C13.1928 7.82302 13.1909 9.39476 13.3125 10.9594C14.6983 9.77944 16.0214 8.52772 17.2762 7.20935C17.0125 6.50746 16.6129 5.86447 16.1004 5.31719C15.5879 4.76991 14.9724 4.3291 14.2893 4.01998C14.2893 4.01998 11.9193 3.06373 11.205 4.74935V4.74935Z" fill="url(#paint0_linear_125_196)"/>
<path d="M20.4824 25.3031C20.357 25.4382 20.2282 25.5701 20.0962 25.6987C20.1637 25.6369 20.2331 25.5637 20.2968 25.4962C20.3624 25.4356 20.4244 25.3711 20.4824 25.3031V25.3031Z" fill="#BE202E"/>
<path opacity="0.35" d="M20.4824 25.3031C20.357 25.4382 20.2282 25.5701 20.0962 25.6987C20.1637 25.6369 20.2331 25.5637 20.2968 25.4962C20.3624 25.4356 20.4244 25.3711 20.4824 25.3031V25.3031Z" fill="#BE202E"/>
<path d="M19.5 23.1675C19.5225 23.1506 19.5394 23.1281 19.56 23.1113C19.6444 23.0269 19.7288 22.9425 19.8 22.8563C19.7063 22.9594 19.5994 23.0588 19.4982 23.1675H19.5Z" fill="#BE202E"/>
<path opacity="0.35" d="M19.5 23.1675C19.5225 23.1506 19.5394 23.1281 19.56 23.1113C19.6444 23.0269 19.7288 22.9425 19.8 22.8563C19.7063 22.9594 19.5994 23.0588 19.4982 23.1675H19.5Z" fill="#BE202E"/>
<path d="M13.8375 18.9225C13.7125 18.0325 13.6 17.1575 13.5 16.2975C13.3968 15.4032 13.3125 14.5257 13.2543 13.6575C13.2543 13.605 13.245 13.5525 13.2543 13.5057C13.187 12.679 13.1438 11.8505 13.125 11.0213L10.4531 9.73315C10.4531 9.8944 10.4343 10.0613 10.4287 10.2375C10.4025 10.8769 10.3818 11.55 10.3762 12.2719C10.3762 13.0782 10.3762 13.9182 10.3912 14.7975C10.41 15.6075 10.4437 16.4513 10.4868 17.31C10.53 18.045 10.5787 18.7875 10.6387 19.545V19.6313L14.2125 21.4407C14.0943 20.595 13.9631 19.755 13.8375 18.9225V18.9225Z" fill="url(#paint1_linear_125_196)"/>
<path d="M19.125 40.0538C19.3125 40.7213 19.5225 41.4094 19.74 42.1069V42.135C19.77 42.2363 19.7944 42.3319 19.8319 42.4294C19.9744 42.9 20.1113 43.3182 20.4075 44.2744C21.1249 44.2305 21.8391 44.4015 22.4588 44.7657C21.9726 44.1694 21.2716 43.7883 20.5069 43.7044C21.5362 43.1793 22.4006 42.3803 23.005 41.3954C23.6094 40.4106 23.9304 39.2781 23.9325 38.1225C23.9109 37.9177 23.8815 37.7138 23.8444 37.5113C23.8227 37.9675 23.6777 38.4094 23.4247 38.7897C23.1718 39.1701 22.8205 39.4748 22.4081 39.6713C23.2747 38.3571 23.6772 36.7911 23.5519 35.2219C23.5238 34.86 23.4769 34.4719 23.4113 34.0613C23.3072 35.0534 22.9459 36.0011 22.3632 36.8107C21.7805 37.6204 20.9965 38.2639 20.0888 38.6775L19.005 39.675C19.0444 39.8007 19.0781 39.9244 19.125 40.0538V40.0538Z" fill="url(#paint2_linear_125_196)"/>
<path d="M17.7244 37.0031L17.04 34.4268C16.6063 32.7355 16.1925 31.0392 15.7988 29.3381C15.6 28.4812 15.405 27.5868 15.2213 26.7131C15.0375 25.8393 14.865 24.9675 14.6925 24.1012C14.6317 23.7892 14.5735 23.4767 14.5181 23.1637C14.4188 22.6275 14.3306 22.0875 14.2331 21.5456C14.2314 21.5154 14.2251 21.4857 14.2144 21.4575L10.6613 19.6443C10.6695 19.7009 10.6738 19.7579 10.6744 19.815C10.7456 20.6193 10.815 21.4368 10.9106 22.2525C11.0063 23.0681 11.1094 23.9212 11.2331 24.7668C11.3381 25.4793 11.4506 26.1862 11.5688 26.9006L11.6456 27.3281C11.959 29.0391 12.3589 30.7332 12.8438 32.4037C12.9975 32.9212 13.1494 33.42 13.305 33.8925C13.44 34.29 13.5863 34.6893 13.7269 35.0831C14.0663 36.0075 14.4431 36.9037 14.8519 37.7793L18.4425 39.5981C18.255 38.9381 18.0675 38.2668 17.88 37.5862L17.7244 37.0031V37.0031Z" fill="url(#paint3_linear_125_196)"/>
<path d="M14.9006 37.89C15.3873 38.9402 15.939 39.9591 16.5525 40.9406C16.5731 40.9706 16.5937 41.0119 16.6143 41.0419C15.7237 40.7974 14.7945 40.7255 13.8768 40.83C15.5439 41.2936 17.0634 42.1789 18.2887 43.4006C17.6945 43.9217 16.9766 44.2819 16.2037 44.4469C16.9711 44.5733 17.758 44.5037 18.4912 44.2444C17.7865 45.0034 17.3051 45.9423 17.1 46.9575C17.6055 45.958 18.3904 45.1269 19.3593 44.565C20.5414 48.4315 21.813 52.27 23.1731 56.0775C23.2832 55.9357 23.3562 55.7688 23.3857 55.5917C23.4151 55.4146 23.4001 55.233 23.3418 55.0632C21.928 51.0552 20.6182 47.0114 19.4137 42.9357C19.3575 42.7482 19.3087 42.5607 19.2468 42.3732L19.2 42.2156C19 41.5281 18.7962 40.8206 18.5887 40.0931C18.5437 39.9244 18.495 39.7669 18.45 39.5963L14.8593 37.7775C14.8697 37.8162 14.8835 37.8538 14.9006 37.89V37.89Z" fill="url(#paint4_linear_125_196)"/>
<path d="M14.6362 21.5175L14.7 21.8663C14.7693 22.2225 14.8312 22.5825 14.9043 22.9444C14.9793 23.34 15.0618 23.7431 15.1406 24.1575C15.18 24.3656 15.2193 24.5738 15.2643 24.7875C15.3937 25.425 15.5343 26.0775 15.6787 26.7506C15.8662 27.5775 16.0537 28.4269 16.2618 29.3119C16.4493 30.1481 16.6706 31.02 16.8918 31.9069C17.1075 32.7525 17.325 33.6188 17.565 34.515C17.775 35.3081 18.0018 36.1238 18.2306 36.9525C18.2306 36.9919 18.2568 37.035 18.2643 37.0744C18.495 37.8975 18.7368 38.7469 18.9881 39.6113C18.9896 39.6304 18.9954 39.649 19.005 39.6656L20.0887 38.6681C20.0606 38.6681 20.04 38.6925 20.0043 38.7075C21.4769 37.0876 22.4007 35.0443 22.6443 32.8688C22.7598 31.7855 22.7484 30.6925 22.6106 29.6119C22.4959 28.673 22.3218 27.7424 22.0893 26.8256C21.8595 25.9056 21.5936 24.9949 21.2925 24.0956C21.0717 24.5291 20.7935 24.9308 20.4656 25.29L20.2781 25.4963C20.2162 25.5656 20.1468 25.6256 20.0775 25.6988C20.9396 24.2932 21.2194 22.6068 20.8575 20.9981C20.6154 21.6773 20.252 22.3069 19.785 22.8563C19.7137 22.9425 19.6293 23.0269 19.545 23.1113C19.5225 23.1281 19.5056 23.1506 19.4775 23.1731C19.7733 22.696 20.0071 22.1831 20.1731 21.6469C20.2061 21.5423 20.233 21.4359 20.2537 21.3281C20.2912 21.165 20.3175 21 20.3418 20.835C20.3512 20.7263 20.3681 20.625 20.3775 20.5144C20.3991 20.2567 20.3991 19.9977 20.3775 19.74C20.3775 19.6538 20.3775 19.5769 20.3568 19.4963C20.3362 19.3763 20.3212 19.2638 20.2987 19.155C20.2125 18.6544 20.1112 18.2175 20.0193 17.8425C19.9706 17.655 19.9256 17.4825 19.8768 17.3269C19.8543 17.265 19.8431 17.205 19.8206 17.1394C19.7625 16.9688 19.7156 16.8113 19.6631 16.68C19.6056 16.5253 19.5399 16.3739 19.4662 16.2263C19.4483 16.3009 19.4219 16.3733 19.3875 16.4419C19.0727 17.0842 18.6617 17.6748 18.1687 18.1931L19.1681 17.28L18.1631 18.1875C18.1586 18.19 18.1547 18.1935 18.1518 18.1977C18.1489 18.202 18.147 18.2068 18.1462 18.2119C18.0945 18.2636 18.0457 18.318 18 18.375C18 18.3619 18.0168 18.3506 18.0187 18.3394L14.6062 21.4613C14.6343 21.4856 14.6381 21.5044 14.6362 21.5175V21.5175Z" fill="url(#paint5_linear_125_196)"/>
<path d="M13.3125 10.9594C13.3537 11.7094 13.4194 12.5494 13.5 13.4794C13.5017 13.5285 13.5073 13.5774 13.5169 13.6256C13.5938 14.4375 13.6931 15.3131 13.8206 16.2675C13.9294 17.0906 14.0494 17.955 14.1956 18.8925C14.3175 19.7044 14.4675 20.5537 14.6212 21.4556L18.0338 18.33C18.6141 17.406 18.9119 16.3327 18.8906 15.2419C18.8906 14.9737 18.87 14.6925 18.8494 14.4037C18.7957 13.5043 18.6969 12.6082 18.5531 11.7187C18.4264 10.906 18.2567 10.1005 18.045 9.30561C17.935 8.89117 17.8042 8.48253 17.6531 8.08123C17.537 7.79366 17.4119 7.50977 17.2781 7.22998C16.0198 8.53899 14.6962 9.78369 13.3125 10.9594V10.9594Z" fill="url(#paint6_linear_125_196)"/>
<path d="M20.3006 25.5C20.2387 25.5694 20.1694 25.6294 20.1 25.7025C20.1631 25.6314 20.2301 25.5638 20.3006 25.5V25.5Z" fill="#BE202E"/>
<path opacity="0.35" d="M20.3006 25.5C20.2387 25.5694 20.1694 25.6294 20.1 25.7025C20.1631 25.6314 20.2301 25.5638 20.3006 25.5V25.5Z" fill="#BE202E"/>
<path d="M20.3006 25.5C20.2387 25.5694 20.1694 25.6294 20.1 25.7025C20.1631 25.6314 20.2301 25.5638 20.3006 25.5V25.5Z" fill="url(#paint7_linear_125_196)"/>
<path d="M19.5 23.1731C19.5225 23.1563 19.5394 23.1338 19.5675 23.1113C19.545 23.1281 19.5281 23.1506 19.5 23.1731Z" fill="#BE202E"/>
<path opacity="0.35" d="M19.5 23.1731C19.5225 23.1563 19.5394 23.1338 19.5675 23.1113C19.545 23.1281 19.5281 23.1506 19.5 23.1731Z" fill="#BE202E"/>
<path d="M19.5 23.1731C19.5225 23.1563 19.5394 23.1338 19.5675 23.1113C19.545 23.1281 19.5281 23.1506 19.5 23.1731Z" fill="url(#paint8_linear_125_196)"/>
<path d="M46.1756 5.42061C44.5054 6.33926 42.9733 7.48939 41.625 8.83686L42.75 12.0056C43.9736 10.6858 45.2895 9.45462 46.6875 8.32123L46.8412 8.19748C46.7925 8.24248 46.7362 8.27623 46.6875 8.32123C45.3403 9.47887 44.0864 10.7409 42.9375 12.0956C44.9887 12.2482 47.0466 12.2932 49.1025 12.2306C49.4494 11.4552 49.6398 10.619 49.6626 9.76982C49.6855 8.92068 49.5404 8.07539 49.2356 7.28248C49.2356 7.28248 48.0881 4.63123 46.1756 5.42061V5.42061Z" fill="url(#paint9_linear_125_196)"/>
<path d="M37.3125 29.3362C37.1025 29.3475 36.8944 29.3475 36.6863 29.3475H37.0088C37.1102 29.3497 37.2116 29.346 37.3125 29.3362V29.3362Z" fill="#BE202E"/>
<path opacity="0.35" d="M37.3125 29.3362C37.1025 29.3475 36.8944 29.3475 36.6863 29.3475H37.0088C37.1102 29.3497 37.2116 29.346 37.3125 29.3362V29.3362Z" fill="#BE202E"/>
<path d="M38.22 26.8387H38.3137C38.4487 26.8387 38.5837 26.8387 38.7112 26.8237C38.5537 26.8237 38.3887 26.8237 38.2218 26.835L38.22 26.8387Z" fill="#BE202E"/>
<path opacity="0.35" d="M38.22 26.8387H38.3137C38.4487 26.8387 38.5837 26.8387 38.7112 26.8237C38.5537 26.8237 38.3887 26.8237 38.2218 26.835L38.22 26.8387Z" fill="#BE202E"/>
<path d="M37.0331 18.9206C37.6406 18.1056 38.2456 17.3106 38.8481 16.5356C40.0756 14.9643 41.3726 13.4484 42.735 11.9925L41.61 8.83313C41.4769 8.95875 41.3344 9.08438 41.19 9.2175C40.6594 9.71063 40.1044 10.2431 39.5325 10.8131C38.8875 11.4563 38.22 12.1388 37.5375 12.8588C36.9094 13.5263 36.2662 14.2313 35.6194 14.9569C35.07 15.5831 34.5187 16.2188 33.9656 16.8769L33.9019 16.95L35.34 21.2456C35.9119 20.4713 36.4725 19.6875 37.0331 18.9206V18.9206Z" fill="url(#paint10_linear_125_196)"/>
<path d="M24.4931 40.125C24.1181 40.8187 23.7431 41.5312 23.3587 42.2662C23.3587 42.2756 23.3456 42.285 23.3437 42.2944C23.2875 42.4012 23.2312 42.4969 23.1844 42.6037C22.9256 43.095 22.7044 43.5412 22.1831 44.5462C22.7958 45.0807 23.2351 45.7858 23.445 46.5712C23.5271 45.7056 23.2659 44.8423 22.7175 44.1675C25.6387 44.73 28.2919 44.355 29.91 42.3956C30.0506 42.2194 30.1912 42.0319 30.3244 41.8331C29.9442 42.1829 29.4763 42.423 28.9705 42.528C28.4647 42.633 27.9398 42.5989 27.4519 42.4294C29.1941 42.058 30.7622 41.1149 31.9069 39.75C32.1712 39.435 32.4394 39.09 32.715 38.7037C31.8429 39.4199 30.799 39.8959 29.6864 40.0847C28.5739 40.2735 27.4313 40.1684 26.3719 39.78L24.7069 39.7219C24.6356 39.8644 24.5625 39.99 24.4931 40.125V40.125Z" fill="url(#paint11_linear_125_196)"/>
<path d="M25.7962 36.5625C26.2875 35.6981 26.7881 34.8263 27.2962 33.9375C27.7837 33.0938 28.2806 32.25 28.7962 31.4025C29.3118 30.555 29.8256 29.7038 30.345 28.8544C30.8643 28.005 31.4193 27.1313 31.9706 26.2763C32.5218 25.4213 33.0712 24.5888 33.6187 23.7525C33.8193 23.4488 34.0181 23.1563 34.2281 22.8544C34.5731 22.3444 34.9293 21.8344 35.2837 21.3263C35.2987 21.2981 35.3231 21.27 35.3381 21.24L33.9187 16.9575C33.8802 17.0097 33.8382 17.0592 33.7931 17.1056C33.2118 17.8106 32.6193 18.5231 32.0418 19.26C31.4643 19.9969 30.8756 20.76 30.3037 21.5419C29.8218 22.1981 29.3512 22.8544 28.8787 23.5256C28.7868 23.6569 28.6912 23.7994 28.6012 23.9325C27.1562 26.041 25.8599 28.2476 24.7218 30.5363C24.5137 30.9638 24.315 31.4006 24.1162 31.83C23.655 32.8425 23.2462 33.8644 22.8768 34.8919L24.3225 39.2044C24.6975 38.52 25.0837 37.8394 25.4681 37.1419C25.5712 36.9563 25.6875 36.765 25.7962 36.5625V36.5625Z" fill="url(#paint12_linear_125_196)"/>
<path d="M22.8187 35.0363C22.3764 36.2686 22.0113 37.5273 21.7256 38.805C21.7256 38.8463 21.7012 38.895 21.6956 38.9363C21.1726 38.0317 20.4814 37.2355 19.6593 36.5907C20.633 38.2882 21.1529 40.2081 21.1687 42.165C20.2759 42.1121 19.4115 41.8313 18.6581 41.3494C19.1752 42.0614 19.8641 42.6309 20.6606 43.005C19.4904 43.0567 18.357 43.4297 17.385 44.0832C18.5862 43.6806 19.8786 43.6357 21.1049 43.9538C19.1249 47.685 17.1 51.8344 15.0281 56.25C15.2286 56.2228 15.4193 56.1461 15.5829 56.027C15.7465 55.9079 15.878 55.75 15.9656 55.5675C16.3406 54.7688 18.7968 49.5188 22.44 42.6825C22.5412 42.495 22.6518 42.2982 22.7549 42.0938L22.8412 41.9307C23.2262 41.2182 23.6243 40.4869 24.0356 39.7369L24.3187 39.2269V39.2175L22.8731 34.905C22.8508 34.947 22.8326 34.9909 22.8187 35.0363V35.0363Z" fill="url(#paint13_linear_125_196)"/>
<path d="M35.6137 21.645L35.3887 21.975C35.1618 22.3162 34.9256 22.6556 34.6968 23.0062C34.4681 23.3569 34.1887 23.7731 33.9225 24.1706C33.7893 24.3694 33.6562 24.5681 33.5212 24.7762C33.1181 25.3931 32.7131 26.0306 32.295 26.685C31.2302 28.3741 30.19 30.0787 29.175 31.7981C28.6762 32.6494 28.1643 33.5212 27.645 34.4231C27.1837 35.2294 26.7187 36.0637 26.2387 36.9187C26.2125 36.9562 26.1956 37.005 26.1693 37.0444C25.7025 37.89 25.2206 38.7656 24.735 39.6694C24.7207 39.6862 24.7104 39.7061 24.705 39.7275L26.37 39.7856C26.3418 39.7706 26.31 39.7669 26.2706 39.75C28.7429 39.6152 31.1096 38.7038 33.0337 37.1456C33.9887 36.3665 34.8495 35.4786 35.5987 34.5C36.2518 33.6531 36.8505 32.7657 37.3912 31.8431C37.9012 30.9825 38.415 30.0394 38.9193 29.0119C38.3973 29.1851 37.8543 29.2873 37.305 29.3156L36.99 29.3325H36.6675C38.4778 28.8854 40.0424 27.75 41.0287 26.1675C40.2942 26.5224 39.5013 26.741 38.6887 26.8125C38.5612 26.8256 38.4262 26.8256 38.2912 26.8275H38.1881C38.805 26.6787 39.4004 26.4519 39.96 26.1525C40.0697 26.0962 40.1762 26.0336 40.2787 25.965C40.44 25.8637 40.59 25.7512 40.7418 25.6387L41.025 25.41C41.246 25.2181 41.4504 25.008 41.6362 24.7819C41.7 24.7087 41.76 24.645 41.8125 24.5681C41.8912 24.4556 41.9681 24.3525 42.0356 24.2475C42.4424 23.6652 42.8161 23.0605 43.155 22.4362C43.185 22.3687 43.2243 22.3106 43.2562 22.2487C43.3462 22.0612 43.4325 21.9 43.4943 21.7537C43.5705 21.5837 43.6375 21.4097 43.695 21.2325C43.6214 21.2783 43.5427 21.3154 43.4606 21.3431C42.6971 21.6104 41.8972 21.7596 41.0887 21.7856L42.6187 21.8437L41.0887 21.7856C41.0837 21.7833 41.0783 21.7821 41.0728 21.7821C41.0673 21.7821 41.0618 21.7833 41.0568 21.7856C40.9769 21.7814 40.8968 21.7814 40.8168 21.7856C40.8281 21.7856 40.8487 21.7856 40.86 21.7706L35.6287 21.5831C35.6381 21.6169 35.625 21.6356 35.6137 21.645V21.645Z" fill="url(#paint14_linear_125_196)"/>
<path d="M42.9375 12.0975C42.375 12.7331 41.76 13.4625 41.0888 14.28C41.0509 14.3209 41.0164 14.3647 40.9857 14.4112C40.4025 15.1256 39.7894 15.9112 39.1313 16.7793C38.5688 17.5293 37.9688 18.3243 37.3425 19.1981C36.795 19.9481 36.2419 20.7525 35.655 21.6L40.8863 21.7875C42.0877 21.5053 43.1806 20.8784 44.0307 19.9837C44.2388 19.7643 44.4507 19.5262 44.6644 19.2768C45.3337 18.5084 45.9638 17.7068 46.5525 16.875C47.0934 16.12 47.5941 15.337 48.0525 14.5293C48.2935 14.1088 48.5131 13.6763 48.7107 13.2337C48.855 12.8906 48.975 12.5662 49.0857 12.2493C47.035 12.302 44.9831 12.2513 42.9375 12.0975V12.0975Z" fill="url(#paint15_linear_125_196)"/>
<path d="M37.0088 29.3531H36.6863C36.7937 29.3472 36.9014 29.3472 37.0088 29.3531V29.3531Z" fill="#BE202E"/>
<path opacity="0.35" d="M37.0088 29.3531H36.6863C36.7937 29.3472 36.9014 29.3472 37.0088 29.3531V29.3531Z" fill="#BE202E"/>
<path d="M37.0088 29.3531H36.6863C36.7937 29.3472 36.9014 29.3472 37.0088 29.3531V29.3531Z" fill="url(#paint16_linear_125_196)"/>
<defs>
<linearGradient id="paint0_linear_125_196" x1="10.1804" y1="4.29459" x2="16.7123" y2="-3.99182" gradientUnits="userSpaceOnUse">
<stop stop-color="#F69923"/>
<stop offset="0.312" stop-color="#F79A23"/>
<stop offset="0.838" stop-color="#E97826"/>
</linearGradient>
<linearGradient id="paint1_linear_125_196" x1="19.1621" y1="54.2543" x2="9.64649" y2="6.26227" gradientUnits="userSpaceOnUse">
<stop offset="0.323" stop-color="#9E2064"/>
<stop offset="0.63" stop-color="#C92037"/>
<stop offset="0.751" stop-color="#CD2335"/>
<stop offset="1" stop-color="#E97826"/>
</linearGradient>
<linearGradient id="paint2_linear_125_196" x1="22.8366" y1="47.5047" x2="17.1662" y2="18.9062" gradientUnits="userSpaceOnUse">
<stop stop-color="#282662"/>
<stop offset="0.095" stop-color="#662E8D"/>
<stop offset="0.788" stop-color="#9F2064"/>
<stop offset="0.949" stop-color="#CD2032"/>
</linearGradient>
<linearGradient id="paint3_linear_125_196" x1="18.1845" y1="51.6466" x2="8.66881" y2="3.65462" gradientUnits="userSpaceOnUse">
<stop offset="0.323" stop-color="#9E2064"/>
<stop offset="0.63" stop-color="#C92037"/>
<stop offset="0.751" stop-color="#CD2335"/>
<stop offset="1" stop-color="#E97826"/>
</linearGradient>
<linearGradient id="paint4_linear_125_196" x1="18.1479" y1="48.0161" x2="13.1472" y2="22.795" gradientUnits="userSpaceOnUse">
<stop stop-color="#282662"/>
<stop offset="0.095" stop-color="#662E8D"/>
<stop offset="0.788" stop-color="#9F2064"/>
<stop offset="0.949" stop-color="#CD2032"/>
</linearGradient>
<linearGradient id="paint5_linear_125_196" x1="23.1508" y1="50.662" x2="13.6351" y2="2.66994" gradientUnits="userSpaceOnUse">
<stop offset="0.323" stop-color="#9E2064"/>
<stop offset="0.63" stop-color="#C92037"/>
<stop offset="0.751" stop-color="#CD2335"/>
<stop offset="1" stop-color="#E97826"/>
</linearGradient>
<linearGradient id="paint6_linear_125_196" x1="23.5006" y1="53.6868" x2="13.9849" y2="5.69475" gradientUnits="userSpaceOnUse">
<stop offset="0.323" stop-color="#9E2064"/>
<stop offset="0.63" stop-color="#C92037"/>
<stop offset="0.751" stop-color="#CD2335"/>
<stop offset="1" stop-color="#E97826"/>
</linearGradient>
<linearGradient id="paint7_linear_125_196" x1="24.6385" y1="50.3669" x2="15.1228" y2="2.37502" gradientUnits="userSpaceOnUse">
<stop offset="0.323" stop-color="#9E2064"/>
<stop offset="0.63" stop-color="#C92037"/>
<stop offset="0.751" stop-color="#CD2335"/>
<stop offset="1" stop-color="#E97826"/>
</linearGradient>
<linearGradient id="paint8_linear_125_196" x1="24.4639" y1="50.4016" x2="14.9483" y2="2.40959" gradientUnits="userSpaceOnUse">
<stop offset="0.323" stop-color="#9E2064"/>
<stop offset="0.63" stop-color="#C92037"/>
<stop offset="0.751" stop-color="#CD2335"/>
<stop offset="1" stop-color="#E97826"/>
</linearGradient>
<linearGradient id="paint9_linear_125_196" x1="39.07" y1="7.47034" x2="50.9557" y2="5.99322" gradientUnits="userSpaceOnUse">
<stop stop-color="#F69923"/>
<stop offset="0.312" stop-color="#F79A23"/>
<stop offset="0.838" stop-color="#E97826"/>
</linearGradient>
<linearGradient id="paint10_linear_125_196" x1="6.45315" y1="54.9698" x2="37.0688" y2="8.63271" gradientUnits="userSpaceOnUse">
<stop offset="0.323" stop-color="#9E2064"/>
<stop offset="0.63" stop-color="#C92037"/>
<stop offset="0.751" stop-color="#CD2335"/>
<stop offset="1" stop-color="#E97826"/>
</linearGradient>
<linearGradient id="paint11_linear_125_196" x1="14.8057" y1="52.453" x2="33.0496" y2="24.8406" gradientUnits="userSpaceOnUse">
<stop stop-color="#282662"/>
<stop offset="0.095" stop-color="#662E8D"/>
<stop offset="0.788" stop-color="#9F2064"/>
<stop offset="0.949" stop-color="#CD2032"/>
</linearGradient>
<linearGradient id="paint12_linear_125_196" x1="7.74468" y1="52.0846" x2="38.3603" y2="5.74743" gradientUnits="userSpaceOnUse">
<stop offset="0.323" stop-color="#9E2064"/>
<stop offset="0.63" stop-color="#C92037"/>
<stop offset="0.751" stop-color="#CD2335"/>
<stop offset="1" stop-color="#E97826"/>
</linearGradient>
<linearGradient id="paint13_linear_125_196" x1="10.6124" y1="49.1245" x2="26.7017" y2="24.7731" gradientUnits="userSpaceOnUse">
<stop stop-color="#282662"/>
<stop offset="0.095" stop-color="#662E8D"/>
<stop offset="0.788" stop-color="#9F2064"/>
<stop offset="0.949" stop-color="#CD2032"/>
</linearGradient>
<linearGradient id="paint14_linear_125_196" x1="12.5398" y1="55.2527" x2="43.1554" y2="8.9156" gradientUnits="userSpaceOnUse">
<stop offset="0.323" stop-color="#9E2064"/>
<stop offset="0.63" stop-color="#C92037"/>
<stop offset="0.751" stop-color="#CD2335"/>
<stop offset="1" stop-color="#E97826"/>
</linearGradient>
<linearGradient id="paint15_linear_125_196" x1="10.4082" y1="57.9736" x2="41.0238" y2="11.6365" gradientUnits="userSpaceOnUse">
<stop offset="0.323" stop-color="#9E2064"/>
<stop offset="0.63" stop-color="#C92037"/>
<stop offset="0.751" stop-color="#CD2335"/>
<stop offset="1" stop-color="#E97826"/>
</linearGradient>
<linearGradient id="paint16_linear_125_196" x1="13.9762" y1="56.2018" x2="44.5917" y2="9.86451" gradientUnits="userSpaceOnUse">
<stop offset="0.323" stop-color="#9E2064"/>
<stop offset="0.63" stop-color="#C92037"/>
<stop offset="0.751" stop-color="#CD2335"/>
<stop offset="1" stop-color="#E97826"/>
</linearGradient>
</defs>
</svg>
