<svg width="60" height="60" viewBox="0 0 60 60" fill="none" xmlns="http://www.w3.org/2000/svg">
<g clip-path="url(#clip0_125_246)">
<path d="M59.7675 35.9286C59.4077 34.872 58.4653 34.1361 57.2465 33.9595C56.6718 33.8764 56.0137 33.9118 55.2349 34.0675C53.8774 34.3391 52.8703 34.4425 52.1353 34.4625C54.9096 29.9204 57.1654 24.7409 58.4641 19.8652C60.5641 11.9814 59.4419 8.38976 58.1306 6.76522C54.6602 2.46522 49.597 0.155218 43.4887 0.084536C40.2302 0.0458996 37.3697 0.669763 35.8774 1.1184C34.488 0.880672 32.9941 0.747945 31.4266 0.7234C28.4883 0.677945 25.8921 1.29908 23.6737 2.57567C22.4456 2.17295 20.4745 1.60522 18.1983 1.24294C12.8447 0.390672 8.52982 1.05476 5.37372 3.21681C1.552 5.83454 -0.219637 10.3827 0.10802 16.735C0.212082 18.7518 1.37552 24.8882 3.2074 30.7077C4.26021 34.0527 5.38286 36.8304 6.54419 38.9645C8.19115 41.9907 9.95341 43.7727 11.9318 44.4127C13.0406 44.7709 15.0553 45.0218 17.1743 43.3104C17.4429 43.6259 17.8012 43.9393 18.2768 44.2304C18.8808 44.5998 19.6193 44.9016 20.3569 45.0804C23.0149 45.7248 25.5047 45.5636 27.6288 44.6604C27.6419 45.0268 27.652 45.3768 27.6604 45.6791C27.6745 46.1693 27.6886 46.65 27.7071 47.0995C27.8329 50.1391 28.0462 52.5025 28.6781 54.1561C28.7128 54.247 28.7594 54.3857 28.8086 54.5327C29.1239 55.4686 29.651 57.0354 30.9921 58.2625C32.3808 59.5336 34.0605 59.9234 35.599 59.9234C36.3705 59.9234 37.1067 59.8252 37.7524 59.6911C40.054 59.2127 42.6679 58.4841 44.5589 55.8732C46.3467 53.405 47.2158 49.6875 47.373 43.83C47.3934 43.6643 47.4122 43.5061 47.4302 43.3554L47.4677 43.0459L47.8889 43.0818L47.9974 43.0889C50.3416 43.1925 53.208 42.7104 54.9684 41.9175C56.3594 41.2916 60.817 39.0095 59.7675 35.9286" fill="black"/>
<path d="M55.7592 36.5277C48.7889 37.9221 48.3096 35.6336 48.3096 35.6336C55.669 25.0443 58.7456 11.6027 56.0908 8.31297C48.8477 -0.660898 36.3098 3.58319 36.1005 3.69319L36.0333 3.70501C34.6561 3.42774 33.1151 3.26274 31.3828 3.23524C28.229 3.18524 25.8365 4.03706 24.0211 5.37206C24.0211 5.37206 1.65466 -3.56294 2.69505 16.6093C2.9163 20.9007 9.03818 49.0805 16.3399 40.5689C19.0087 37.4564 21.5876 34.8248 21.5876 34.8248C22.8682 35.6498 24.4015 36.0707 26.0088 35.9196L26.1337 35.8168C26.0948 36.2032 26.1126 36.5811 26.1836 37.0286C24.3026 39.0666 24.8554 39.4243 21.0951 40.175C17.2901 40.9355 19.5253 42.2891 20.9847 42.6432C22.754 43.0721 26.8472 43.6798 29.6128 39.9255L29.5026 40.3539C30.2395 40.9264 30.757 44.0773 30.6703 46.9339C30.5836 49.7902 30.5257 51.7514 31.1062 53.2832C31.6872 54.815 32.2659 58.2616 37.2093 57.2346C41.3397 56.3761 43.4803 54.1518 43.7782 50.4414C43.9894 47.8036 44.4677 48.1936 44.4977 45.8352L44.8814 44.7189C45.3236 41.1432 44.9517 39.9896 47.4963 40.5261L48.1151 40.5789C49.9877 40.6614 52.4393 40.2866 53.8781 39.6382C56.9761 38.2441 58.8136 35.9161 55.7587 36.5277H55.7592" fill="#336791"/>
<path d="M25.3303 18.5284C24.7022 18.4436 24.1334 18.522 23.8456 18.7334C23.6838 18.8522 23.6337 18.99 23.6201 19.0847C23.584 19.3359 23.7654 19.6136 23.877 19.7568C24.1924 20.1622 24.6532 20.4409 25.1093 20.5022C25.1754 20.5113 25.2413 20.5154 25.3067 20.5154C26.0672 20.5154 26.7588 19.9411 26.8198 19.5172C26.8959 18.9863 26.1012 18.6325 25.3303 18.5286M46.1391 18.5452C46.0791 18.1291 45.3155 18.0104 44.5908 18.1082C43.867 18.2059 43.1653 18.5227 43.2239 18.9397C43.2708 19.2641 43.8748 19.8177 44.5896 19.8177C44.6501 19.8177 44.711 19.8138 44.7724 19.8054C45.2496 19.7413 45.5998 19.4475 45.7662 19.2782C46.0193 19.02 46.166 18.7322 46.1391 18.5452" fill="white"/>
<path d="M58.0786 36.3693C57.8128 35.59 56.9573 35.3393 55.5361 35.6238C51.3162 36.4684 49.8049 35.8834 49.3087 35.5291C52.5888 30.6836 55.2872 24.8263 56.7429 19.3616C57.4324 16.7729 57.8133 14.3688 57.8444 12.4093C57.8789 10.2586 57.5011 8.67815 56.722 7.7127C53.5809 3.82065 48.9708 1.73292 43.3903 1.67565C39.5538 1.63383 36.3124 2.58588 35.684 2.85361C34.3608 2.53452 32.9182 2.33861 31.3476 2.31361C28.4676 2.26838 25.9781 2.93702 23.917 4.29997C23.0217 3.97679 20.708 3.20656 17.8783 2.76452C12.9865 2.00088 9.09913 2.57952 6.32506 4.4852C3.01499 6.75929 1.48686 10.8243 1.78288 16.567C1.88249 18.4991 3.0178 24.4427 4.80936 30.1347C7.16764 37.6266 9.73124 41.8677 12.4284 42.7402C12.7441 42.8422 13.1081 42.9136 13.5096 42.9136C14.4935 42.9136 15.6998 42.4836 16.9549 41.0204C18.4857 39.2396 20.0693 37.5021 21.7036 35.81C22.7639 36.3618 23.9287 36.67 25.1201 36.7009C25.1224 36.7311 25.1255 36.7613 25.1283 36.7913C24.9232 37.0285 24.7224 37.269 24.5259 37.5129C23.7005 38.5291 23.5287 38.7406 20.8715 39.2711C20.1157 39.4225 18.1083 39.8236 18.0787 41.1881C18.0469 42.6791 20.4518 43.3052 20.7258 43.3716C21.6806 43.6034 22.6005 43.7177 23.4778 43.7177C25.6113 43.7177 27.4889 43.0377 28.9894 41.722C28.9432 47.037 29.1717 52.2743 29.8298 53.87C30.3689 55.1763 31.6856 58.3688 35.8448 58.3686C36.4551 58.3686 37.1269 58.2997 37.8658 58.1461C42.2067 57.2438 44.0918 55.3834 44.8209 51.2818C45.2112 49.0897 45.8808 43.8554 46.1958 41.0477C46.8605 41.2488 47.7162 41.3409 48.6412 41.3407C50.5706 41.3407 52.7969 40.9431 54.1931 40.3147C55.7615 39.6084 58.5919 37.8752 58.0786 36.3693V36.3693ZM47.7412 17.3966C47.7269 18.2254 47.6093 18.9779 47.4846 19.7634C47.3503 20.6082 47.2115 21.4816 47.1766 22.5418C47.1422 23.5736 47.2751 24.6463 47.4035 25.6838C47.6632 27.7793 47.9297 29.9366 46.8982 32.0652C46.7268 31.7708 46.5742 31.4665 46.4412 31.1541C46.313 30.8527 46.0345 30.3686 45.649 29.6986C44.1492 27.0904 40.6371 20.9827 42.435 18.4904C42.9705 17.7486 44.3297 16.9859 47.7412 17.3966V17.3966ZM43.6059 3.35406C48.6061 3.46111 52.5614 5.27497 55.3617 8.74497C57.5095 11.4066 55.1444 23.5172 48.2976 33.9652C48.2288 33.8803 48.1596 33.7957 48.09 33.7113L48.0033 33.6063C49.7726 30.7729 49.4266 27.9695 49.1187 25.4841C48.9921 24.4641 48.8726 23.5007 48.903 22.5957C48.9344 21.6366 49.0652 20.8138 49.1918 20.0184C49.3472 19.0382 49.5054 18.0238 49.4618 16.8282C49.4944 16.7027 49.5075 16.5545 49.4904 16.3786C49.379 15.232 48.029 11.8004 45.2775 8.69452C43.7723 6.99565 41.5774 5.09452 38.5805 3.81224C39.8695 3.55315 41.6323 3.31156 43.6059 3.35406V3.35406ZM15.6267 39.9495C14.2439 41.5618 13.289 41.2527 12.975 41.1513C10.9289 40.4895 8.55467 36.2959 6.46147 29.6459C4.65022 23.8918 3.59178 18.1057 3.50788 16.4832C3.2435 11.3518 4.52624 7.77565 7.32069 5.85383C11.8685 2.72656 19.3455 4.59838 22.35 5.5477C22.3069 5.58906 22.2619 5.6277 22.2192 5.66974C17.2889 10.4979 17.4058 18.747 17.418 19.2513C17.4176 19.4459 17.4344 19.7213 17.4574 20.1002C17.5423 21.4877 17.7002 24.07 17.2783 26.9943C16.8865 29.7118 17.7504 32.3716 19.6481 34.2918C19.8429 34.4885 20.0476 34.6757 20.2615 34.8527C19.4168 35.73 17.5809 37.67 15.6267 39.9495V39.9495ZM20.8952 33.1329C19.3657 31.5852 18.671 29.4325 18.989 27.2261C19.4344 24.137 19.2701 21.4466 19.1817 20.0011C19.1693 19.7988 19.1583 19.6216 19.1519 19.4818C19.8722 18.8625 23.2099 17.1284 25.5902 17.6572C26.6763 17.8984 27.3382 18.6157 27.6133 19.8493C29.0374 26.2363 27.8018 28.8984 26.809 31.0377C26.6044 31.4784 26.411 31.895 26.246 32.3259L26.118 32.6591C25.7941 33.5013 25.4927 34.2845 25.3059 35.0281C23.6798 35.0236 22.098 34.35 20.8952 33.1327V33.1329ZM21.1448 41.7466C20.67 41.6316 20.243 41.4318 19.9924 41.2661C20.2017 41.1706 20.5741 41.0407 21.2201 40.9116C24.3459 40.2877 24.8287 39.8472 25.883 38.5493C26.1246 38.2516 26.3986 37.9143 26.778 37.5034L26.7785 37.5029C27.3436 36.8893 27.6021 36.9934 28.0708 37.182C28.4508 37.3343 28.8208 37.7961 28.9708 38.3043C29.0419 38.5443 29.1215 38.9997 28.8607 39.3543C26.6585 42.3443 23.4494 42.3059 21.1448 41.7466V41.7466ZM37.504 56.5084C33.6799 57.3029 32.3259 55.4109 31.4337 53.2479C30.8578 51.8516 30.5747 45.5547 30.7755 38.6009C30.7781 38.5084 30.7645 38.4191 30.7383 38.335C30.7148 38.1689 30.6791 38.0047 30.6314 37.8436C30.3328 36.8318 29.6051 35.9854 28.732 35.6345C28.3851 35.4952 27.7486 35.2395 26.9836 35.4293C27.1467 34.7775 27.4296 34.0413 27.7364 33.2443L27.8651 32.9091C28.0099 32.5311 28.1918 32.1395 28.384 31.725C29.423 29.4868 30.8458 26.4211 29.3015 19.4954C28.7231 16.9013 26.7914 15.6345 23.8631 15.9288C22.1076 16.105 20.5015 16.7918 19.7004 17.1857C19.5281 17.2702 19.3706 17.352 19.2234 17.4316C19.447 14.8179 20.2917 9.93338 23.4515 6.84292C25.4412 4.89747 28.0908 3.93656 31.319 3.98838C37.68 4.08929 41.759 7.25474 44.0611 9.8927C46.0448 12.1657 47.119 14.4554 47.5476 15.6904C44.3238 15.3725 42.1312 15.9895 41.0198 17.5304C38.6018 20.8822 42.3426 27.3877 44.1405 30.5143C44.4703 31.0872 44.7548 31.5825 44.8444 31.7929C45.4298 33.1688 46.1878 34.0875 46.7412 34.7579C46.9108 34.9634 47.0754 35.1627 47.2005 35.3368C46.2241 35.6097 44.4703 36.2404 44.6301 39.3929C44.5012 40.9747 43.5846 48.3806 43.1189 50.9972C42.5041 54.4541 41.1923 55.7416 37.504 56.5086V56.5084ZM53.4658 38.7957C52.4674 39.245 50.7965 39.582 49.2094 39.6545C47.4562 39.7341 46.5637 39.4641 46.3537 39.2979C46.2553 37.3334 47.0093 37.1282 47.8073 36.9109C47.9327 36.8768 48.0551 36.8434 48.1732 36.8034C48.2465 36.8613 48.3269 36.9188 48.4151 36.9752C49.8241 37.877 52.3373 37.9743 55.8855 37.2641L55.9244 37.2566C55.4458 37.6904 54.6269 38.2727 53.4658 38.7957Z" fill="white"/>
</g>
<defs>
<clipPath id="clip0_125_246">
<rect width="60" height="60" fill="white"/>
</clipPath>
</defs>
</svg>
