<svg width="60" height="60" viewBox="0 0 60 60" fill="none" xmlns="http://www.w3.org/2000/svg">
<path d="M29.7844 3.93748C16.4719 3.93748 17.3138 9.69373 17.3138 9.69373V15.675H29.9738V17.55H12.2719C12.2719 17.55 3.75 16.5 3.75 30.0094C3.75 43.5187 11.2744 42.9694 11.2744 42.9694H15.6187V36.6675C15.6187 36.6675 15.375 29.1431 22.9312 29.1431H35.61C35.61 29.1431 42.6825 29.2556 42.6825 22.2956V10.875C42.6825 10.875 43.755 3.91498 29.8537 3.91498L29.7844 3.93748ZM22.7869 7.94435C23.2369 7.933 23.6803 8.05536 24.0608 8.29598C24.4413 8.5366 24.742 8.88465 24.9247 9.29613C25.1074 9.70761 25.164 10.164 25.0873 10.6077C25.0106 11.0513 24.804 11.4622 24.4938 11.7885C24.1835 12.1147 23.7835 12.3417 23.3443 12.4405C22.905 12.5394 22.4464 12.5058 22.0262 12.344C21.6061 12.1822 21.2434 11.8995 20.9839 11.5315C20.7245 11.1636 20.58 10.7269 20.5688 10.2769V10.2394C20.5688 9.63565 20.8086 9.05668 21.2354 8.6298C21.6623 8.20292 22.2413 7.9631 22.845 7.9631L22.7869 7.94435Z" fill="url(#paint0_linear_125_193)"/>
<path d="M30.1594 56.0813C43.4719 56.0813 42.63 50.3063 42.63 50.3063V44.3438H29.9719V42.4688H47.7281C47.7281 42.4688 56.25 43.4213 56.25 29.9906C56.25 16.56 48.7256 17.0306 48.7256 17.0306H44.325V23.25C44.325 23.25 44.5688 30.7744 37.0125 30.7744H24.3281C24.3281 30.7744 17.25 30.6675 17.25 37.6275V49.125C17.25 49.125 16.1775 56.085 30.0787 56.085H30.1538L30.1594 56.0813ZM37.1569 52.0556C36.7068 52.067 36.2635 51.9446 35.8829 51.704C35.5024 51.4634 35.2018 51.1153 35.0191 50.7039C34.8364 50.2924 34.7798 49.836 34.8565 49.3923C34.9332 48.9487 35.1397 48.5378 35.45 48.2115C35.7602 47.8853 36.1603 47.6583 36.5995 47.5595C37.0387 47.4606 37.4974 47.4941 37.9175 47.656C38.3377 47.8178 38.7004 48.1005 38.9598 48.4685C39.2192 48.8364 39.3637 49.2731 39.375 49.7231V49.7794C39.375 50.3831 39.1352 50.9621 38.7083 51.3889C38.2814 51.8158 37.7024 52.0556 37.0987 52.0556H37.155H37.1569Z" fill="url(#paint1_linear_125_193)"/>
<defs>
<linearGradient id="paint0_linear_125_193" x1="8.93842" y1="9.04292" x2="33.8509" y2="33.899" gradientUnits="userSpaceOnUse">
<stop stop-color="#387EB8"/>
<stop offset="1" stop-color="#366994"/>
</linearGradient>
<linearGradient id="paint1_linear_125_193" x1="23.6766" y1="25.2348" x2="52.1394" y2="50.0834" gradientUnits="userSpaceOnUse">
<stop stop-color="#FFE052"/>
<stop offset="1" stop-color="#FFC331"/>
</linearGradient>
</defs>
</svg>
