<svg width="60" height="60" viewBox="0 0 60 60" fill="none" xmlns="http://www.w3.org/2000/svg">
<g clip-path="url(#clip0_125_233)">
<path d="M9.12732 8.4091C20.982 -3.07504 39.9368 -2.76637 51.421 9.14996C52.7176 7.42121 53.829 5.5073 54.6317 3.53152C58.3981 15.0157 60.6826 24.6475 59.8179 32.1182C59.3858 38.4159 56.9161 44.4668 52.8411 49.2827C42.2215 61.8782 23.3281 63.4835 10.7326 52.8639L10.4916 52.6495L10.4787 52.6411C10.4391 52.6134 10.4002 52.5847 10.362 52.555C10.2472 52.4657 10.1429 52.3685 10.0489 52.2644L10.0151 52.226L9.62138 51.876C9.23701 51.5468 8.85287 51.2175 8.51209 50.8448L8.38646 50.7028C-3.09791 38.8481 -2.72736 19.8932 9.12709 8.4091H9.12732ZM13.5725 48.6037C12.4611 47.7393 10.8558 47.8626 9.99123 48.974C9.23138 49.9514 9.23513 51.3105 10.0027 52.2119L10.0149 52.226L10.4914 52.6495L10.5383 52.6814C11.6173 53.3911 13.0695 53.2443 13.8976 52.2412L13.943 52.1847C14.8074 51.0733 14.6222 49.4681 13.5727 48.6035L13.5725 48.6037ZM54.3233 6.61847C51.2358 13.1015 43.5795 18.041 36.9732 19.5846C30.7372 21.0663 25.3036 19.8316 19.5617 22.0542C6.47232 27.0555 6.71935 42.6145 13.8814 46.1339L14.3136 46.3809C14.3136 46.3809 19.4872 45.3522 24.6031 43.9938L25.0414 43.8766C27.0847 43.3258 29.0949 42.7258 30.7372 42.1207C39.2576 38.9718 48.6427 31.1922 51.7297 22.1777C50.1244 31.5625 42.0361 40.6387 33.9476 44.7757C29.6258 46.9982 26.2918 47.4921 19.1914 49.9619C18.327 50.2706 17.6478 50.5795 17.6478 50.5795L17.9075 50.5443L18.08 50.5221L18.2518 50.5005C19.8197 50.306 21.2288 50.2089 21.2288 50.2089C31.2929 49.7149 47.0991 53.0491 54.4465 43.2321C61.9791 33.2296 57.7805 17.0531 54.323 6.61847H54.3233Z" fill="#6DB33F"/>
<path d="M13.5729 48.6038C14.6227 49.4681 14.8078 51.0734 13.9432 52.1848C13.0791 53.2962 11.4736 53.4197 10.3622 52.5551C9.25102 51.6907 9.1275 50.0855 9.99188 48.9741C10.8563 47.8627 12.4615 47.7394 13.5731 48.6038H13.5729ZM54.3234 6.61853C57.7809 17.0531 61.9795 33.2297 54.447 43.2321C47.0993 53.0492 31.2933 49.7149 21.2292 50.209C21.2292 50.209 19.8202 50.3063 18.2522 50.5006L18.0804 50.5221C17.937 50.5404 17.7926 50.5596 17.6482 50.5795C17.6482 50.5795 18.3274 50.2706 19.1918 49.962C26.2922 47.4924 29.6262 46.9983 33.948 44.7757C42.0366 40.639 50.1248 31.5626 51.7301 22.1777C48.6431 31.1923 39.258 38.9719 30.7376 42.1207C24.8721 44.2817 14.314 46.381 14.314 46.381L13.8818 46.1339C6.71977 42.6145 6.47273 27.0556 19.5621 22.0542C25.3043 19.8317 30.7376 21.0663 36.9738 19.5846C43.5802 18.041 51.2363 13.1018 54.3234 6.61853V6.61853Z" fill="white"/>
</g>
<defs>
<clipPath id="clip0_125_233">
<rect width="60" height="60" fill="white"/>
</clipPath>
</defs>
</svg>
