<svg width="31" height="30" viewBox="0 0 31 30" fill="none" xmlns="http://www.w3.org/2000/svg">
<path d="M15.5001 0.916656C13.585 0.916656 11.6886 1.29387 9.91928 2.02675C8.14995 2.75963 6.54229 3.83383 5.18811 5.18802C2.4532 7.92292 0.916748 11.6322 0.916748 15.5C0.916748 21.9458 5.10216 27.4146 10.8917 29.3542C11.6209 29.4708 11.8542 29.0187 11.8542 28.625V26.1604C7.81466 27.0354 6.95425 24.2062 6.95425 24.2062C6.28341 22.5146 5.3355 22.0625 5.3355 22.0625C4.00841 21.1583 5.43758 21.1875 5.43758 21.1875C6.89591 21.2896 7.66883 22.6896 7.66883 22.6896C8.93758 24.9062 11.0813 24.25 11.9126 23.9C12.0438 22.9521 12.423 22.3104 12.8313 21.9458C9.59383 21.5812 6.19591 20.3271 6.19591 14.7708C6.19591 13.1521 6.75008 11.8542 7.698 10.8187C7.55216 10.4542 7.04175 8.93749 7.84383 6.96874C7.84383 6.96874 9.06883 6.57499 11.8542 8.45624C13.0063 8.13541 14.2605 7.97499 15.5001 7.97499C16.7397 7.97499 17.9938 8.13541 19.1459 8.45624C21.9313 6.57499 23.1563 6.96874 23.1563 6.96874C23.9584 8.93749 23.448 10.4542 23.3022 10.8187C24.2501 11.8542 24.8042 13.1521 24.8042 14.7708C24.8042 20.3417 21.3917 21.5667 18.1397 21.9312C18.6647 22.3833 19.1459 23.2729 19.1459 24.6292V28.625C19.1459 29.0187 19.3792 29.4854 20.123 29.3542C25.9126 27.4 30.0834 21.9458 30.0834 15.5C30.0834 13.5849 29.7062 11.6885 28.9733 9.91919C28.2404 8.14986 27.1662 6.5422 25.8121 5.18802C24.4579 3.83383 22.8502 2.75963 21.0809 2.02675C19.3116 1.29387 17.4152 0.916656 15.5001 0.916656Z" fill="#B5B5B5"/>
</svg>
