<svg width="31" height="26" viewBox="0 0 31 26" fill="none" xmlns="http://www.w3.org/2000/svg">
<path d="M30.7542 3.75001C29.6313 4.26043 28.4208 4.59584 27.1667 4.75626C28.45 3.98334 29.4417 2.75834 29.9083 1.28543C28.6979 2.01459 27.3563 2.52501 25.9417 2.81668C24.7896 1.56251 23.1709 0.833344 21.3334 0.833344C17.9063 0.833344 15.1063 3.63334 15.1063 7.08959C15.1063 7.58543 15.1646 8.06668 15.2667 8.51876C10.075 8.25626 5.4521 5.76251 2.37502 1.98543C1.83543 2.90418 1.52918 3.98334 1.52918 5.12084C1.52918 7.29376 2.62293 9.21876 4.3146 10.3125C3.27918 10.3125 2.31668 10.0208 1.47085 9.58334V9.62709C1.47085 12.6604 3.62918 15.1979 6.48752 15.7667C5.56983 16.0178 4.60641 16.0528 3.67293 15.8688C4.06903 17.112 4.84476 18.1998 5.89108 18.9793C6.93741 19.7588 8.20171 20.1908 9.50627 20.2146C7.29489 21.9652 4.55376 22.9115 1.73335 22.8979C1.23752 22.8979 0.741683 22.8688 0.24585 22.8104C3.01668 24.5896 6.31252 25.625 9.84168 25.625C21.3334 25.625 27.6479 16.0875 27.6479 7.81876C27.6479 7.54168 27.6479 7.27918 27.6333 7.00209C28.8583 6.12709 29.9083 5.01876 30.7542 3.75001Z" fill="#B5B5B5"/>
</svg>
