<svg width="35" height="35" viewBox="0 0 35 35" fill="none" xmlns="http://www.w3.org/2000/svg">
<path d="M17.5 0C19.1064 0 20.6559 0.205078 22.1484 0.615234C23.641 1.02539 25.0366 1.61214 26.3354 2.37549C27.6343 3.13883 28.8135 4.05029 29.873 5.10986C30.9326 6.16943 31.8441 7.35433 32.6074 8.66455C33.3708 9.97477 33.9575 11.3704 34.3677 12.8516C34.7778 14.3327 34.9886 15.8822 35 17.5C35 19.1064 34.7949 20.6559 34.3848 22.1484C33.9746 23.641 33.3879 25.0366 32.6245 26.3354C31.8612 27.6343 30.9497 28.8135 29.8901 29.873C28.8306 30.9326 27.6457 31.8441 26.3354 32.6074C25.0252 33.3708 23.6296 33.9575 22.1484 34.3677C20.6673 34.7778 19.1178 34.9886 17.5 35C15.8936 35 14.3441 34.7949 12.8516 34.3848C11.359 33.9746 9.96338 33.3879 8.66455 32.6245C7.36572 31.8612 6.18652 30.9497 5.12695 29.8901C4.06738 28.8306 3.15592 27.6457 2.39258 26.3354C1.62923 25.0252 1.04248 23.6353 0.632324 22.1655C0.222168 20.6958 0.0113932 19.1406 0 17.5C0 15.8936 0.205078 14.3441 0.615234 12.8516C1.02539 11.359 1.61214 9.96338 2.37549 8.66455C3.13883 7.36572 4.05029 6.18652 5.10986 5.12695C6.16943 4.06738 7.35433 3.15592 8.66455 2.39258C9.97477 1.62923 11.3647 1.04248 12.8345 0.632324C14.3042 0.222168 15.8594 0.0113932 17.5 0ZM17.5 32.8125C18.9014 32.8125 20.2515 32.6302 21.5503 32.2656C22.8491 31.901 24.0682 31.3883 25.2075 30.7275C26.3468 30.0667 27.3836 29.2635 28.3179 28.3179C29.2521 27.3722 30.0496 26.3411 30.7104 25.2246C31.3713 24.1081 31.8896 22.889 32.2656 21.5674C32.6416 20.2458 32.8239 18.89 32.8125 17.5C32.8125 16.0986 32.6302 14.7485 32.2656 13.4497C31.901 12.1509 31.3883 10.9318 30.7275 9.79248C30.0667 8.65316 29.2635 7.61637 28.3179 6.68213C27.3722 5.74788 26.3411 4.95036 25.2246 4.28955C24.1081 3.62874 22.889 3.11035 21.5674 2.73438C20.2458 2.3584 18.89 2.17611 17.5 2.1875C16.0986 2.1875 14.7485 2.36979 13.4497 2.73438C12.1509 3.09896 10.9318 3.61165 9.79248 4.27246C8.65316 4.93327 7.61637 5.73649 6.68213 6.68213C5.74788 7.62777 4.95036 8.65885 4.28955 9.77539C3.62874 10.8919 3.11035 12.111 2.73438 13.4326C2.3584 14.7542 2.17611 16.11 2.1875 17.5C2.1875 18.9014 2.36979 20.2515 2.73438 21.5503C3.09896 22.8491 3.61165 24.0682 4.27246 25.2075C4.93327 26.3468 5.73649 27.3836 6.68213 28.3179C7.62777 29.2521 8.65885 30.0496 9.77539 30.7104C10.8919 31.3713 12.111 31.8896 13.4326 32.2656C14.7542 32.6416 16.11 32.8239 17.5 32.8125ZM27.7026 17.7734L28.5229 15.3125H29.8047L28.3521 19.6875H27.0703L26.25 17.2266L25.4297 19.6875H24.1479L22.6953 15.3125H23.9771L24.7974 17.7734L25.6177 15.3125H26.8823L27.7026 17.7734ZM19.7729 15.3125H21.0547L19.6021 19.6875H18.3203L17.5 17.2266L16.6797 19.6875H15.3979L13.9453 15.3125H15.2271L16.0474 17.7734L16.8677 15.3125H18.1323L18.9526 17.7734L19.7729 15.3125ZM11.0229 15.3125H12.3047L10.8521 19.6875H9.57031L8.75 17.2266L7.92969 19.6875H6.64795L5.19531 15.3125H6.47705L7.29736 17.7734L8.11768 15.3125H9.38232L10.2026 17.7734L11.0229 15.3125Z" fill="#B5B5B5"/>
</svg>
