<svg width="20" height="20" viewBox="0 0 20 20" fill="none" xmlns="http://www.w3.org/2000/svg">
<path d="M10.0001 1.66663C8.90573 1.66663 7.8221 1.88217 6.81105 2.30096C5.80001 2.71975 4.88135 3.33358 4.10752 4.1074C2.54472 5.67021 1.66675 7.78982 1.66675 9.99996C1.66675 13.6833 4.05841 16.8083 7.36675 17.9166C7.78341 17.9833 7.91675 17.725 7.91675 17.5V16.0916C5.60841 16.5916 5.11675 14.975 5.11675 14.975C4.73341 14.0083 4.19175 13.75 4.19175 13.75C3.43341 13.2333 4.25008 13.25 4.25008 13.25C5.08341 13.3083 5.52508 14.1083 5.52508 14.1083C6.25008 15.375 7.47508 15 7.95008 14.8C8.02508 14.2583 8.24175 13.8916 8.47508 13.6833C6.62508 13.475 4.68341 12.7583 4.68341 9.58329C4.68341 8.65829 5.00008 7.91663 5.54175 7.32496C5.45841 7.11663 5.16675 6.24996 5.62508 5.12496C5.62508 5.12496 6.32508 4.89996 7.91675 5.97496C8.57508 5.79163 9.29175 5.69996 10.0001 5.69996C10.7084 5.69996 11.4251 5.79163 12.0834 5.97496C13.6751 4.89996 14.3751 5.12496 14.3751 5.12496C14.8334 6.24996 14.5417 7.11663 14.4584 7.32496C15.0001 7.91663 15.3167 8.65829 15.3167 9.58329C15.3167 12.7666 13.3667 13.4666 11.5084 13.675C11.8084 13.9333 12.0834 14.4416 12.0834 15.2166V17.5C12.0834 17.725 12.2167 17.9916 12.6417 17.9166C15.9501 16.8 18.3334 13.6833 18.3334 9.99996C18.3334 8.90561 18.1179 7.82198 17.6991 6.81093C17.2803 5.79988 16.6665 4.88122 15.8926 4.1074C15.1188 3.33358 14.2002 2.71975 13.1891 2.30096C12.1781 1.88217 11.0944 1.66663 10.0001 1.66663V1.66663Z" fill="black"/>
</svg>
